<svg height="54" preserveAspectRatio="xMidYMid" width="205" xmlns="http://www.w3.org/2000/svg"><g fill-rule="evenodd"><path d="M203.947 34.231c-.371.972-.913 1.831-1.626 2.578s-1.592 1.343-2.636 1.787c-1.046.444-2.242.667-3.589.667a9.144 9.144 0 0 1-3.238-.571 8.006 8.006 0 0 1-2.666-1.634 7.615 7.615 0 0 1-1.801-2.578c-.44-1.01-.66-2.146-.66-3.406a7.88 7.88 0 0 1 .652-3.208 8.06 8.06 0 0 1 1.78-2.57c.752-.728 1.641-1.297 2.666-1.707s2.124-.615 3.296-.615c1.152 0 2.239.193 3.259.578 1.021.386 1.909.935 2.666 1.648s1.355 1.578 1.795 2.593c.439 1.016.659 2.153.659 3.413a8.408 8.408 0 0 1-.557 3.025zm-2.746-5.486c-.24-.957-.601-1.784-1.084-2.483a5.243 5.243 0 0 0-1.809-1.64c-.723-.396-1.568-.594-2.535-.594-.742 0-1.426.142-2.05.425-.625.284-1.165.694-1.619 1.231s-.808 1.196-1.062 1.977-.381 1.67-.381 2.666c0 1.113.125 2.151.374 3.113s.615 1.797 1.098 2.505a5.332 5.332 0 0 0 1.809 1.67c.723.405 1.563.608 2.52.608.742 0 1.426-.147 2.051-.44a4.632 4.632 0 0 0 1.618-1.26c.454-.546.806-1.213 1.055-1.999s.374-1.672.374-2.659c0-1.122-.12-2.162-.359-3.12zm-18.736 10.481c-.884.152-1.775.227-2.673.227-1.807 0-3.46-.261-4.959-.784-1.499-.522-2.788-1.261-3.867-2.218a10.023 10.023 0 0 1-2.519-3.45c-.601-1.343-.901-2.835-.901-4.475 0-.928.119-1.841.359-2.74.239-.898.588-1.752 1.047-2.563s1.025-1.555 1.699-2.235a10.964 10.964 0 0 1 2.307-1.765c.865-.497 1.817-.886 2.857-1.164s2.165-.418 3.376-.418c1.885 0 3.633.289 5.245.865l.996 2.71-.132.058c-.762-.702-1.677-1.264-2.747-1.684-1.069-.42-2.244-.63-3.523-.63-1.23 0-2.358.193-3.384.579a7.397 7.397 0 0 0-2.644 1.677c-.737.732-1.311 1.631-1.721 2.695-.41 1.065-.615 2.276-.615 3.633 0 1.494.195 2.888.586 4.182.39 1.295.972 2.414 1.743 3.362.771.947 1.736 1.692 2.893 2.234s2.507.813 4.05.813a8.093 8.093 0 0 0 4.725-1.531 7.476 7.476 0 0 0 1.237-1.121l.161.103-1.171 2.988c-.733.283-1.541.501-2.425.652z" fill="#cabe9f"/><path d="M164.257 24.101c-.044.323-.08.721-.11 1.195a36.12 36.12 0 0 0-.058 1.684c-.01.65-.015 1.413-.015 2.293v9.931h-.571l-11.646-11.455v5.215c0 .879.005 1.645.015 2.3.01.654.027 1.218.051 1.692.025.473.059.871.103 1.193.044.323.1.586.168.791v.059h-2.197v-.059c.068-.205.127-.468.176-.791.049-.322.088-.72.117-1.193a37.59 37.59 0 0 0 .059-1.692c.009-.655.014-1.421.014-2.3v-3.691c0-.88-.005-1.643-.014-2.293-.01-.649-.03-1.211-.059-1.684a13.77 13.77 0 0 0-.117-1.195 4.962 4.962 0 0 0-.176-.791v-.058h.908l11.66 11.514v-5.493c0-.88-.005-1.643-.014-2.293a46.046 46.046 0 0 0-.052-1.684 17.644 17.644 0 0 0-.095-1.195 4.18 4.18 0 0 0-.161-.791v-.058h2.183v.058a4.444 4.444 0 0 0-.169.791zm-19.431 12.708c-.713.747-1.592 1.343-2.637 1.787s-2.241.667-3.588.667c-1.143 0-2.222-.19-3.238-.571s-1.904-.926-2.666-1.634a7.632 7.632 0 0 1-1.802-2.578c-.439-1.01-.659-2.146-.659-3.406 0-1.152.217-2.221.652-3.208a8.06 8.06 0 0 1 1.78-2.57c.752-.728 1.641-1.297 2.666-1.707s2.124-.615 3.296-.615c1.152 0 2.239.193 3.259.578 1.02.386 1.909.935 2.666 1.648s1.355 1.578 1.795 2.593c.439 1.016.659 2.153.659 3.413a8.408 8.408 0 0 1-.557 3.025 7.642 7.642 0 0 1-1.626 2.578zm-1.12-8.064c-.24-.957-.601-1.784-1.084-2.483a5.237 5.237 0 0 0-1.81-1.64c-.722-.396-1.567-.594-2.534-.594-.742 0-1.426.142-2.051.425-.625.284-1.164.694-1.618 1.231s-.808 1.196-1.062 1.977-.381 1.67-.381 2.666c0 1.113.124 2.151.374 3.113.249.962.615 1.797 1.098 2.505.484.708 1.086 1.265 1.809 1.67s1.563.608 2.52.608c.742 0 1.425-.147 2.051-.44a4.632 4.632 0 0 0 1.618-1.26c.454-.546.806-1.213 1.055-1.999s.373-1.672.373-2.659a12.87 12.87 0 0 0-.358-3.12zm-16.78 9.302c-.381.401-.87.73-1.465.989-.596.258-1.318.388-2.168.388a7.31 7.31 0 0 1-1.34-.118 9.824 9.824 0 0 1-1.172-.285 7.366 7.366 0 0 1-1.648-.739l.263-2.769h.308c.098.342.242.683.432 1.026.191.341.425.651.703.929.279.279.606.503.982.674s.808.257 1.296.257c.342 0 .664-.056.967-.169a2.31 2.31 0 0 0 .784-.476c.219-.205.393-.457.52-.754.126-.298.19-.632.19-1.004a2.85 2.85 0 0 0-.264-1.223c-.175-.376-.41-.737-.703-1.084s-.622-.681-.988-1.003c-.367-.322-.745-.65-1.136-.982-.39-.331-.769-.671-1.135-1.018s-.696-.72-.989-1.12c-.293-.401-.527-.828-.703-1.282s-.264-.954-.264-1.502c0-.576.122-1.094.367-1.553.244-.459.566-.847.966-1.164.401-.317.86-.561 1.377-.733a5.136 5.136 0 0 1 1.612-.256c.41 0 .793.03 1.15.088a8.554 8.554 0 0 1 1.721.462c.215.083.39.148.527.197l-.073 2.491h-.293c-.059-.166-.154-.376-.286-.63s-.307-.503-.527-.747c-.22-.245-.491-.452-.813-.623s-.708-.256-1.157-.256c-.342 0-.647.056-.916.168a1.979 1.979 0 0 0-.681.462 1.976 1.976 0 0 0-.425.695 2.567 2.567 0 0 0 .315 2.322 8.98 8.98 0 0 0 1.15 1.37c.459.453.957.91 1.494 1.369.537.46 1.035.938 1.494 1.436s.843 1.025 1.15 1.582c.308.556.462 1.152.462 1.787 0 .469-.086.952-.257 1.451a3.668 3.668 0 0 1-.827 1.347zm-14.488.893c.069-.205.13-.468.184-.791.053-.322.097-.72.131-1.193.034-.474.061-1.038.081-1.692a80.39 80.39 0 0 0 .029-2.3v-3.691c0-.88-.01-1.643-.029-2.293a41.971 41.971 0 0 0-.081-1.684 13.521 13.521 0 0 0-.131-1.195 5.329 5.329 0 0 0-.184-.791v-.058h3.399v.058c-.069.206-.13.469-.183.791a13.11 13.11 0 0 0-.132 1.195 41.971 41.971 0 0 0-.081 1.684c-.019.65-.029 1.413-.029 2.293v3.691c0 .879.01 1.645.029 2.3.02.654.047 1.218.081 1.692.034.473.078.871.132 1.193.053.323.114.586.183.791v.059h-3.399zm-5.61-.153v-.213c0-.214-.046-.473-.139-.776s-.205-.612-.337-.931a19.02 19.02 0 0 0-.41-.915 26.705 26.705 0 0 1-.344-.733l-.572-1.171H101.291a158.594 158.594 0 0 0-2.651.022c-.372.005-.66.008-.865.008l-.542 1.141c-.234.47-.434.877-.6 1.224s-.303.652-.41.915a5.38 5.38 0 0 0-.235.682c-.049.19-.073.369-.073.534 0 .108.005.188.015.242a.308.308 0 0 0 .044.124v.059h-2.579v-.059c.069-.067.176-.217.323-.446.146-.229.315-.511.505-.842a38.638 38.638 0 0 0 1.267-2.433l5.977-12.334h1.098l5.86 12.334a37.488 37.488 0 0 0 1.318 2.498c.195.337.366.615.513.835.146.22.244.35.293.388v.059h-3.75a.909.909 0 0 0 .029-.212zm-5.361-12.386l-3.12 6.504h.893c.41 0 .847-.002 1.311-.007s.93-.007 1.399-.007.923-.003 1.362-.008c.44-.004.835-.007 1.187-.007zM88.649 38.94c.049-.106.096-.283.14-.527.043-.244.065-.537.065-.879 0-.126-.005-.256-.014-.388a9.621 9.621 0 0 0-.044-.432l-1.86-14.033-8.643 16.259-1.011-.116-8.701-16.29c-.342 2.315-.64 4.453-.894 6.417-.107.839-.214 1.677-.322 2.511-.107.835-.203 1.615-.285 2.337-.084.723-.149 1.36-.198 1.911-.049.552-.073.96-.073 1.223 0 .333.009.626.029.879.019.254.039.47.058.645.03.205.059.386.088.542h-2.929v-.059a4.61 4.61 0 0 0 .366-.695 4.91 4.91 0 0 0 .322-1.165 1138.745 1138.745 0 0 0 .769-4.995 438.843 438.843 0 0 0 .835-5.779l.381-2.754c.122-.883.232-1.691.33-2.424a125.031 125.031 0 0 0 .38-3.135h1.861l9.214 17.226 9.14-17.226h1.392l2.402 17.403c.068.547.142 1.015.22 1.406.078.39.156.725.234 1.003.078.279.154.508.227.689.074.18.144.33.213.446v.059h-3.692z" fill="#3f4448"/><path d="M53.99 27.831l-.023.466c-.022.316-.021.735-.095 1.396-.035.319-.058.686-.115 1.068l-.191 1.246c-.093.445-.178.927-.298 1.433-.133.503-.255 1.043-.443 1.596a25.809 25.809 0 0 1-3.696 7.468 27.18 27.18 0 0 1-7.732 7.268c-1.64 1.038-3.468 1.905-5.416 2.621-.487.178-.989.327-1.491.487-.512.128-1.018.291-1.544.392-.261.058-.523.117-.786.174-.262.059-.53.097-.797.147-.532.105-1.075.165-1.621.232-.545.069-1.099.092-1.654.134-.124.002-.25.002-.374.005l-.097.035-.218-.031c-.33.009-.658.024-.996.013l-.837-.015c-.281-.008-.569-.035-.855-.052-.577-.027-1.143-.11-1.718-.176-1.142-.171-2.294-.387-3.427-.719-.573-.145-1.131-.35-1.699-.534-.554-.218-1.123-.41-1.668-.667a26.502 26.502 0 0 1-6.267-3.801 27.774 27.774 0 0 1-5.131-5.549C1.875 38.267.138 33.083.009 27.793c-.149-5.286 1.316-10.65 4.129-15.118C6.922 8.181 11.052 4.65 15.643 2.511 20.252.38 25.289-.358 29.922.157c2.32.254 4.551.785 6.606 1.574a27.285 27.285 0 0 1 5.631 2.938 27.169 27.169 0 0 1 7.635 7.975 27.048 27.048 0 0 1 3.35 7.817c.586 2.291.753 4.147.81 5.403.046.629.026 1.112.034 1.437l.002.492zM51 27.755l-.001.038-.021-.439c-.02-.288-.017-.719-.083-1.276a23.236 23.236 0 0 0-.913-4.739 24.144 24.144 0 0 0-3.194-6.712 24.877 24.877 0 0 0-6.806-6.688c-1.461-.968-3.093-1.797-4.849-2.475-1.76-.674-3.665-1.128-5.651-1.383-.5-.068-.961-.089-1.461-.136l-.826-.027-.415-.013-.34.004c-.515.002-1.033.008-1.553.052-.522.019-1.041.094-1.566.15-1.043.149-2.096.337-3.132.635-.525.128-1.035.314-1.555.477-.507.197-1.029.367-1.528.6a24.232 24.232 0 0 0-5.757 3.445 25.502 25.502 0 0 0-4.737 5.061c-2.718 3.838-4.321 8.592-4.449 13.464a27.643 27.643 0 0 0 .164 3.649c.155 1.209.369 2.414.693 3.592a24.812 24.812 0 0 0 2.929 6.667c2.438 3.922 6.004 7.025 9.97 9l12.849-9.507v2.551l-11.121 7.73c.7.28 1.406.539 2.121.753l9-6.333v2.551l-6.249 4.427a24.82 24.82 0 0 0 2.691.337l3.558-2.614v2.59c.298-.024.599-.041.894-.077.203-.023.4-.061.601-.089V7.408l2.058 2.654v42.577c.492-.116.976-.247 1.452-.393V11.935l2.058 2.653v36.929c.497-.204.98-.425 1.453-.657V16.461l2.058 2.655.003 30.603c.482-.298.953-.605 1.399-.927a24.783 24.783 0 0 0 6.709-7.394 24.084 24.084 0 0 0 1.806-3.726c.456-1.192.816-2.306 1.042-3.336.245-1.025.393-1.953.508-2.76l.115-1.124c.033-.343.035-.642.052-.915.039-.524.018-1.019.024-1.316v-.466zM14.922 46.747l13.846-10.253v2.55L14.922 49.298zm0-4.7l13.846-10.253v2.55L14.922 44.597zm0-4.7l13.846-10.254v2.55L14.922 39.896zm0-4.702l13.846-10.253v2.55L14.922 35.196zm0-4.589l13.846-10.254v2.551L14.922 30.606zm0-4.59l13.846-10.253v2.55L14.922 26.016z" fill="#cabe9f"/></g></svg>