<svg enable-background="new 0 0 93.7 50.7" viewBox="0 0 93.7 50.7" xmlns="http://www.w3.org/2000/svg"><path d="m84.1 44.1c-.2-.1-.4-.3-.6-.3-.6-.2-1.2-.4-1.7-.5-2-.2-4.1-.4-6.2-.5-4.5-.3-9.1-.6-13.6-.8-4.3-.2-8.6-.2-12.9-.4-5.2 0-10.5.1-15.7.5-4.6.4-9.3.8-13.9 1.3-3.6.4-7.1 1-10.6 1.8-2.6.6-5.1 1.2-7.5 2.4-.4.2-.8.4-1.1.7-.3.2-.4.6-.3.9s.3.6.5.7c.7.5 1.6.7 2.5.7 1.5.1 2.8-.3 4.3-.5 3.2-.5 6.3-1.1 9.5-1.6 2.4-.4 4.8-.6 7.2-.9 2-.2 4-.5 6-.7s3.9-.3 5.9-.4c3.3-.3 6.6-.6 10-.8 5-.3 9.9-.5 14.9-.6 5.3-.1 10.5 0 15.8 0 1.9 0 3.8.3 5.7.4.5 0 .9.1 1.4.1.4 0 .8-.1.9-.5s-.2-.7-.5-1zm4 .2c-.6.3-.8.8-.3 1.3.6.7 1.4 1 2.4 1.1.5-.1 1-.2 1.4-.4.5-.2.6-.8.2-1.2-.8-.8-2.7-1.2-3.7-.8zm-81.9-8.2c1 1.2 2.2 2.2 3.8 3 1.5.8 3.3 1.2 5.2 1.3h.7.7c2.4 0 4.7-.3 6.9-.8 2.2-.6 4.3-1.3 6.2-2.3s3.7-2.1 5.3-3.3c1.6-1.3 2.9-2.6 4.1-4 1.1-1.4 2-2.9 2.6-4.3.6-1.5.9-2.9.9-4.3 0-1.1-.2-2.2-.6-3.1s-.9-1.8-1.6-2.5c-.6-.8-1.4-1.4-2.3-2s-1.8-1.1-2.7-1.6c-.5-.3-1.1-.5-1.6-.7-.6-.2-1.1-.4-1.7-.5-.6-.2-1.1-.3-1.7-.5-.6-.1-1.1-.3-1.7-.5-.3-.1-.6-.2-1.1-.4s-.9-.4-1.3-.6-.8-.5-1.1-.8c-.2-.2-.4-.6-.4-.9 0-.2.1-.4.3-.7.2-.2.4-.4.5-.5.4-.3 1-.7 1.8-1s1.7-.7 2.6-.9c1-.3 1.9-.5 3-.7 1-.2 1.9-.3 2.8-.3.4 0 .8 0 1.1.1.3 0 .6.2.9.4.2.3.2.6.1.9-.2.3-.4.6-.8.9s-.8.5-1.3.8c-.5.2-1 .5-1.4.7-.5.2-.8.4-1.1.6s-.5.4-.5.6 0 .3.1.5c.1.1.1.3.2.4.1.3.2.5.3.7s.2.4.4.6c.1.2.3.3.5.4s.5.2.8.2c.5 0 1-.1 1.4-.4s.9-.6 1.3-.8c.4-.3.9-.6 1.3-1s.9-.8 1.2-1.2c.4-.4.7-.9.9-1.4s.4-1 .4-1.6c-.2-.6-.4-1.2-.6-1.6-.3-.5-.7-.9-1.1-1.2-.5-.3-1-.6-1.6-.8s-1.2-.4-1.8-.5-1.2-.2-1.8-.3c-.7-.2-1.2-.2-1.7-.2h-.6c-.7 0-1.5.1-2.4.2s-1.8.3-2.8.5c-.9.2-1.9.6-2.8.9-.8.4-1.6.9-2.3 1.4s-1.3 1.2-1.7 1.9-.7 1.5-.7 2.4c0 1 .3 1.9.8 2.6.5.8 1.2 1.4 2 2s1.7 1.1 2.6 1.4c1 .4 1.8.7 2.6.9.6.2 1.2.3 1.7.5.6.1 1.1.3 1.7.5.7.2 1.4.5 2.1.9s1.4.8 2 1.3 1.1 1 1.5 1.7c.4.6.6 1.4.6 2.2 0 1.1-.3 2.1-.9 3s-1.4 1.8-2.3 2.6c-1 .8-2.1 1.5-3.3 2.1s-2.5 1.2-3.8 1.6-2.5.8-3.7 1-2.3.3-3.2.3c-.6 0-1.2 0-1.8-.1s-1.1-.2-1.7-.4c-.5-.2-1-.5-1.3-.7-.3-.3-.6-.6-.8-.9-.2-.4-.3-.8-.4-1.2s-.1-.9-.1-1.5c0-1.2.2-2.2.7-3.2.4-1 1-1.8 1.8-2.4.7-.7 1.6-1.2 2.6-1.6s2.1-.6 3.2-.6 2.2.1 3.2.4c.7.2 1.4.4 2.1.6s1.5.4 2.2.4h.5c.2 0 .3-.1.5-.2.1-.1.3-.2.4-.3s.2-.3.2-.5c0-.3-.1-.5-.2-.8-.2-.2-.3-.4-.5-.6-.5-.5-1-.9-1.7-1.3-.7-.3-1.4-.6-2.2-.7-.8-.2-1.6-.3-2.4-.3-.8-.1-1.6-.1-2.2-.1-.9 0-1.9.1-3 .2s-2.2.3-3.3.5-2.2.5-3.2.9-1.9.8-2.7 1.3c-1.8 1.2-3.2 2.5-4.2 4s-1.6 3-1.9 4.6-.2 3.1.2 4.6c.4 1.6 1.1 2.9 2.1 4.1zm66.2-25.3c.7.4 1.3.5 2.1.3.7-.2 1.2-.4 1.6-.7s.7-.6.9-.8.3-.6.3-.9-.1-.7-.2-.9c-.1-.3-.3-.5-.5-.7s-.5-.4-.8-.5-.6-.2-.9-.2-.5 0-.8 0-.5.1-.8.2c-.2.1-.5.2-.8.3s-.6.3-.8.5c-.3.2-.5.4-.7.7-.2.2-.3.5-.3.7 0 .4.1.7.4 1.1.2.2.6.5 1.3.9zm21.1 11.8c-.1-.1-.3-.3-.5-.3-.2-.1-.4-.1-.6-.2-.2 0-.4 0-.6 0-.7 0-1.6.1-2.5.2s-1.8.3-2.8.5c-.9.2-1.9.4-2.8.7-.9.2-1.7.5-2.5.7 1.2-1.6 2.4-3.1 3.7-4.5s2.6-2.9 3.9-4.3c.3-.3.5-.6.8-1 .3-.3.5-.7.7-1 .1-.2.2-.3.2-.4s0-.3 0-.4c-.3-.3-.6-.5-1-.8-.3-.2-.7-.5-1-.7l-8 .6c-.2 0-.5 0-.8.1-.3 0-.6.1-.9.2s-.5.2-.7.4c0 .1-.1.4-.1.6 0 .4.1.7.3.9.2.3.4.5.7.6.3.2.6.3.9.4s.7.1 1 .1c.6 0 1.2 0 1.7-.1.6-.1 1.1-.1 1.7-.2-1.1 1.1-2.2 2.2-3.3 3.2-1.1 1.1-2.1 2.2-3.2 3.3-.1.1-.1.2-.2.2.1-.3.2-.6.2-.9 0-.1 0-.2 0-.3s0-.3-.1-.4c0-.1-.1-.2-.2-.3s-.2-.1-.3-.1c-.2 0-.5.1-.8.3s-.7.5-1.2 1-.9.9-1.3 1.2c-.3.3-.7.7-1 .9-.3.3-.6.5-.9.7s-.5.3-.7.3c-.1 0-.2-.1-.2-.3s.1-.6.3-1.1.4-1.1.7-1.8.5-1.4.8-2.1.5-1.4.8-2c.2-.6.4-1.2.6-1.7.1-.5.2-.8.2-1 0-.5-.1-.8-.4-1.1-.3-.2-1-.4-2.1-.4s-1.8.3-2.2.8-1.1 2.8-2.1 6.8c-3.4 4.1-5.2 6-5.4 5.7s-.1-.8.1-1.7c.3-.8.6-1.5.8-2.2s.5-1.3.9-2c.3-.7.7-1.4 1-2.1s.7-1.4 1-2.1c.1-.1.2-.3.3-.7.1-.3.3-.7.5-1.1s.4-.9.6-1.3c.2-.5.4-.9.6-1.3s.3-.8.4-1.1.2-.6.2-.7c0-.3 0-.4-.1-.5s-.2-.2-.5-.3c-.4-.2-.7-.4-1-.6s-.7-.3-1.1-.3c-.6 0-1 .1-1.4.2s-.6.4-.9.8c-.4.7-.8 1.3-1.3 1.8s-1 .8-1.6 1.1c-.5.3-1.1.5-1.6.6s-1 .2-1.5.3-.9.1-1.3.2-.7.2-.9.3c-.1.1-.2.2-.4.4-.1.2-.3.4-.4.6s-.2.4-.3.6-.1.4-.1.5c0 .3 0 .7.1 1 0 .3.1.6.1 1 0 .6-.5 1.9-1.6 4-.1.1-.2.3-.3.4-.7.9-1.3 1.6-1.6 2s-.6.8-.9 1.1c-.3.4-.6.6-.8.9-.3.2-.5.4-.7.4-.1 0-.3-.1-.4-.3-.1-.4-.2-.9-.1-1.5s.2-1.2.4-2c.2-.7.4-1.5.7-2.3s.5-1.5.8-2.3.5-1.5.8-2.1c.2-.7.5-1.2.6-1.7.1-.2.3-.7.7-1.5s.7-1.2.9-1.3.5-.2 1.1-.2c.5 0 1.1 0 1.7-.1.6 0 1.2-.1 1.9-.1.6 0 1.1-.1 1.3-.3s.5-.7.8-1.5c.3-.9.1-1.4-.5-1.6-.9.1-1.6.1-2.2.2-.6 0-1.5.1-2.6.2.9-1.8 1.1-2.9.6-3.4s-1.1-.6-1.9-.4-1.4.5-1.9.9c-.5.5-1.1 1.6-1.9 3.3-1.7.2-2.6.3-2.8.4s-.4.2-.6.4-.3.3-.4.5-.2.5-.2 1 .3.8 1 1c.2 0 .4 0 .7-.1.2 0 .5-.1.8-.1-1 2.2-1.8 4.7-2.5 7.5s-1 4.9-.9 6.4c0 1.5.4 2.6 1.1 3.4s1.5 1.2 2.3 1.2c.6 0 1.2-.2 1.9-.6.3-.2.6-.4.8-.6.1 0 .2.1.2.1.2 0 .3.1.4.1.6 0 1.1-.2 1.6-.7s1-1.2 1.7-2.1c.6-.9 1.3-2.1 2-3.5s1.2-2.6 1.4-3.6c.3-1 .5-1.7.8-2.3.4-.1.8-.2 1.2-.3s.8-.2 1.3-.2c-.4.6-1 2-1.8 4.1s-1.2 4-1.3 5.7 0 3 .4 3.9.9 1.4 1.6 1.5 1.5-.1 2.4-.6 1.8-1.4 3-2.8c.6-.7 1.1-1.3 1.6-1.9 0 1.5.3 2.5 1 2.9 1.2.7 3.1-.1 5.6-2.6 1.1-1.1 2-1.9 2.6-2.6-.4.5-.8 1-1.1 1.6 0 .1-.1.2-.1.3s-.1.2-.2.2c0 .4.1.8.3 1.2s.5.8.8 1.2.7.7 1.1.9c.4.3.8.4 1.2.4.3 0 .5 0 .8-.1 1.1-.4 2.1-.8 3.2-1.2s2.1-.8 3.2-1.2c1.2-.4 2.3-.8 3.5-1.2s2.3-.8 3.4-1.3c.3-.1.5-.2.8-.4s.4-.4.4-.7c.1-.1.1-.3-.1-.4z" fill="#fff"/></svg>